<svg width="160" height="97" viewBox="0 0 160 97" xmlns="http://www.w3.org/2000/svg">
  <path d="M36.2332 70.2165C44.3819 89.4112 63.3447 99.1714 86.5373 95.9216C108.417 92.8462 123.44 77.7106 127.029 57.5591C113.992 60.6686 98.5923 63.5209 82.3919 65.7959C65.7869 68.1339 49.8402 69.6446 36.2332 70.2165Z" />
  <path d="M125.891 32.996C119.578 9.43641 99.0581 -2.998 73.3188 0.624053C48.9086 4.05008 32.9726 22.4625 32.0122 46.1426C12.1431 51.0325 -0.516147 56.23 0.0161917 60.0193C0.54853 63.8086 13.9991 65.3013 34.2513 64.564C50.0963 63.8745 65.8968 62.3919 81.5934 60.1218C98.9286 57.6867 114.85 54.6492 127.765 51.4893C147.76 46.5814 160.52 41.3587 159.986 37.5532C159.457 33.7945 146.066 32.2802 125.893 33.0122"/>
  <style>
    path { fill: #1d1d24; }
    @media (prefers-color-scheme: dark) {
      path { fill: #fafafc; }
    }
  </style>
</svg>
